<svg width="132" height="21" viewBox="0 0 132 21" fill="none" xmlns="http://www.w3.org/2000/svg">
<path d="M6.584 20.168C5.352 20.168 4.248 19.968 3.272 19.568C2.296 19.168 1.512 18.576 0.92 17.792C0.344 17.008 0.0400001 16.064 0.00800008 14.96H4.376C4.44 15.584 4.656 16.064 5.024 16.4C5.392 16.72 5.872 16.88 6.464 16.88C7.072 16.88 7.552 16.744 7.904 16.472C8.256 16.184 8.432 15.792 8.432 15.296C8.432 14.88 8.288 14.536 8 14.264C7.728 13.992 7.384 13.768 6.968 13.592C6.568 13.416 5.992 13.216 5.24 12.992C4.152 12.656 3.264 12.32 2.576 11.984C1.888 11.648 1.296 11.152 0.8 10.496C0.304 9.84 0.0560001 8.984 0.0560001 7.928C0.0560001 6.36 0.624 5.136 1.76 4.256C2.896 3.36 4.376 2.912 6.2 2.912C8.056 2.912 9.552 3.36 10.688 4.256C11.824 5.136 12.432 6.368 12.512 7.952H8.072C8.04 7.408 7.84 6.984 7.472 6.68C7.104 6.36 6.632 6.2 6.056 6.2C5.56 6.2 5.16 6.336 4.856 6.608C4.552 6.864 4.4 7.24 4.4 7.736C4.4 8.28 4.656 8.704 5.168 9.008C5.68 9.312 6.48 9.64 7.568 9.992C8.656 10.36 9.536 10.712 10.208 11.048C10.896 11.384 11.488 11.872 11.984 12.512C12.48 13.152 12.728 13.976 12.728 14.984C12.728 15.944 12.48 16.816 11.984 17.6C11.504 18.384 10.8 19.008 9.872 19.472C8.944 19.936 7.848 20.168 6.584 20.168ZM22.7176 16.52V20H20.6296C19.1416 20 17.9816 19.64 17.1496 18.92C16.3176 18.184 15.9016 16.992 15.9016 15.344V10.016H14.2696V6.608H15.9016V3.344H20.0056V6.608H22.6936V10.016H20.0056V15.392C20.0056 15.792 20.1016 16.08 20.2936 16.256C20.4856 16.432 20.8056 16.52 21.2536 16.52H22.7176ZM29.1076 8.84C29.5876 8.104 30.1876 7.528 30.9076 7.112C31.6276 6.68 32.4276 6.464 33.3076 6.464V10.808H32.1796C31.1556 10.808 30.3876 11.032 29.8756 11.48C29.3636 11.912 29.1076 12.68 29.1076 13.784V20H25.0036V6.608H29.1076V8.84ZM47.8932 13.088C47.8932 13.472 47.8693 13.872 47.8213 14.288H38.5333C38.5973 15.12 38.8613 15.76 39.3253 16.208C39.8053 16.64 40.3893 16.856 41.0773 16.856C42.1013 16.856 42.8133 16.424 43.2133 15.56H47.5813C47.3573 16.44 46.9493 17.232 46.3573 17.936C45.7813 18.64 45.0533 19.192 44.1733 19.592C43.2933 19.992 42.3093 20.192 41.2213 20.192C39.9093 20.192 38.7413 19.912 37.7173 19.352C36.6933 18.792 35.8933 17.992 35.3173 16.952C34.7413 15.912 34.4533 14.696 34.4533 13.304C34.4533 11.912 34.7333 10.696 35.2933 9.656C35.8693 8.616 36.6693 7.816 37.6933 7.256C38.7173 6.696 39.8933 6.416 41.2213 6.416C42.5173 6.416 43.6693 6.688 44.6773 7.232C45.6853 7.776 46.4693 8.552 47.0293 9.56C47.6053 10.568 47.8932 11.744 47.8932 13.088ZM43.6933 12.008C43.6933 11.304 43.4533 10.744 42.9733 10.328C42.4933 9.912 41.8933 9.704 41.1733 9.704C40.4853 9.704 39.9013 9.904 39.4213 10.304C38.9573 10.704 38.6693 11.272 38.5573 12.008H43.6933ZM49.2423 13.28C49.2423 11.904 49.4983 10.696 50.0103 9.656C50.5383 8.616 51.2503 7.816 52.1463 7.256C53.0423 6.696 54.0423 6.416 55.1463 6.416C56.0903 6.416 56.9143 6.608 57.6183 6.992C58.3383 7.376 58.8903 7.88 59.2743 8.504V6.608H63.3783V20H59.2743V18.104C58.8743 18.728 58.3143 19.232 57.5943 19.616C56.8903 20 56.0663 20.192 55.1223 20.192C54.0343 20.192 53.0423 19.912 52.1463 19.352C51.2503 18.776 50.5383 17.968 50.0103 16.928C49.4983 15.872 49.2423 14.656 49.2423 13.28ZM59.2743 13.304C59.2743 12.28 58.9863 11.472 58.4103 10.88C57.8503 10.288 57.1623 9.992 56.3463 9.992C55.5303 9.992 54.8343 10.288 54.2583 10.88C53.6983 11.456 53.4183 12.256 53.4183 13.28C53.4183 14.304 53.6983 15.12 54.2583 15.728C54.8343 16.32 55.5303 16.616 56.3463 16.616C57.1623 16.616 57.8503 16.32 58.4103 15.728C58.9863 15.136 59.2743 14.328 59.2743 13.304ZM83.4354 6.464C85.0994 6.464 86.4194 6.968 87.3954 7.976C88.3874 8.984 88.8834 10.384 88.8834 12.176V20H84.8034V12.728C84.8034 11.864 84.5714 11.2 84.1074 10.736C83.6594 10.256 83.0354 10.016 82.2354 10.016C81.4354 10.016 80.8034 10.256 80.3394 10.736C79.8914 11.2 79.6674 11.864 79.6674 12.728V20H75.5874V12.728C75.5874 11.864 75.3554 11.2 74.8914 10.736C74.4434 10.256 73.8194 10.016 73.0194 10.016C72.2194 10.016 71.5874 10.256 71.1234 10.736C70.6754 11.2 70.4514 11.864 70.4514 12.728V20H66.3474V6.608H70.4514V8.288C70.8674 7.728 71.4114 7.288 72.0834 6.968C72.7554 6.632 73.5154 6.464 74.3634 6.464C75.3714 6.464 76.2674 6.68 77.0514 7.112C77.8514 7.544 78.4754 8.16 78.9234 8.96C79.3874 8.224 80.0194 7.624 80.8194 7.16C81.6194 6.696 82.4914 6.464 83.4354 6.464Z" fill="white"/>
<path d="M102.722 3.152V6.44H95.8576V9.992H100.994V13.184H95.8576V20H91.7536V3.152H102.722ZM108.983 2.24V20H104.879V2.24H108.983ZM114.021 5.216C113.301 5.216 112.709 5.008 112.245 4.592C111.797 4.16 111.573 3.632 111.573 3.008C111.573 2.368 111.797 1.84 112.245 1.424C112.709 0.991999 113.301 0.775999 114.021 0.775999C114.725 0.775999 115.301 0.991999 115.749 1.424C116.213 1.84 116.445 2.368 116.445 3.008C116.445 3.632 116.213 4.16 115.749 4.592C115.301 5.008 114.725 5.216 114.021 5.216ZM116.061 6.608V20H111.957V6.608H116.061ZM126.955 20L124.387 16.28L122.227 20H117.787L122.203 13.16L117.667 6.608H122.275L124.843 10.304L127.003 6.608H131.443L126.955 13.352L131.563 20H126.955Z" fill="#5857B0"/>
</svg>
