<svg xmlns="http://www.w3.org/2000/svg" width="20" height="20" viewBox="0 0 20 20" fill="none">
  <g clip-path="url(#clip0_8_11022)">
    <mask id="mask0_8_11022" style="mask-type:luminance" maskUnits="userSpaceOnUse" x="0" y="4" width="20" height="16">
      <path d="M0.33252 4.12927H19.6032V19.9962H0.33252V4.12927Z" fill="white"/>
    </mask>
    <g mask="url(#mask0_8_11022)">
      <path d="M19.5859 10.8282C19.3931 7.73608 17.8205 5.42263 15.4544 4.12927C15.4678 4.20463 15.4008 4.29882 15.3244 4.26546C13.7768 3.58844 11.1513 5.77948 9.31664 4.63209C9.33042 5.04388 9.25 7.05259 6.42038 7.16911C6.35357 7.17184 6.31681 7.10363 6.35905 7.05533C6.73747 6.62371 7.11955 5.53093 6.57017 4.94836C5.39365 6.00263 4.71042 6.3994 2.45457 5.87583C1.01025 7.38604 0.191828 9.45301 0.352492 12.0279C0.680293 17.2841 5.6037 20.2887 10.5616 19.9793C15.5192 19.6702 19.9138 16.0845 19.5859 10.8282Z" fill="#FA320A"/>
    </g>
    <path d="M10.5504 2.86626C11.5692 2.62343 14.4994 2.8426 15.4383 4.088C15.4946 4.16269 15.4153 4.30402 15.3244 4.26435C13.7768 3.58733 11.1513 5.77837 9.31663 4.63099C9.3304 5.04277 9.24999 7.05148 6.42036 7.168C6.35356 7.17074 6.31679 7.10252 6.35903 7.05422C6.73746 6.6226 7.11945 5.52982 6.57015 4.94725C5.28858 6.09572 4.5938 6.46476 1.81223 5.71289C1.72119 5.68833 1.75223 5.54202 1.84907 5.50509C2.3748 5.30418 3.56584 4.42418 4.69264 4.0363C4.90717 3.96252 5.12102 3.90526 5.32974 3.87198C4.08907 3.76111 3.52982 3.58858 2.74069 3.70758C2.65422 3.72061 2.59546 3.61995 2.64907 3.5509C3.71231 2.18136 5.67098 1.76775 6.87945 2.4953C6.13455 1.57231 5.55107 0.836215 5.55107 0.836215L6.93364 0.0509033C6.93364 0.0509033 7.50484 1.32709 7.92044 2.25588C8.94891 0.736297 10.8624 0.596049 11.6709 1.67422C11.7189 1.73829 11.6687 1.82941 11.5887 1.8275C10.9307 1.81148 10.5683 2.40999 10.5409 2.86518L10.5504 2.86626Z" fill="#00912D"/>
  </g>
  <defs>
    <clipPath id="clip0_8_11022">
      <rect width="20" height="20" fill="white"/>
    </clipPath>
  </defs>
</svg>